<svg width="90" height="90" viewBox="0 0 90 90" fill="none" xmlns="http://www.w3.org/2000/svg">
<g filter="url(#filter0_d)">
<rect x="10" y="6" width="70" height="70" rx="35" fill="black" fill-opacity="0.01"/>
</g>
<circle cx="45" cy="41" r="35" fill="#91D6FF"/>
<path fill-rule="evenodd" clip-rule="evenodd" d="M54.3333 36.3139C54.3333 31.1913 50.1333 27 45 27C39.8666 27 35.6666 31.1913 35.6666 36.3139C35.6666 39.341 37.0666 42.0187 39.2833 43.6486L38 53.6611C37.8833 54.1268 38.1166 54.5925 38.4666 54.8254C38.8166 55.0582 39.2833 55.0582 39.75 54.8254L45 51.6819L50.25 54.8254C50.3666 54.9418 50.6 54.9418 50.8333 54.9418C51.0666 54.9418 51.3 54.8254 51.4166 54.7089C51.7666 54.4761 52 54.0104 51.8833 53.5447L50.6 43.6486C52.9333 42.0187 54.3333 39.341 54.3333 36.3139ZM38 36.3139C38 32.4719 41.15 29.3285 45 29.3285C48.85 29.3285 52 32.4719 52 36.3139C52 40.1559 48.85 43.2994 45 43.2994C41.15 43.2994 38 40.1559 38 36.3139ZM45.5833 49.3534L49.3166 51.5655L48.5 44.9293C47.45 45.395 46.2833 45.6279 45 45.6279C43.7166 45.6279 42.55 45.395 41.5 44.9293L40.6833 51.5655L44.4166 49.3534C44.7666 49.1206 45.2333 49.1206 45.5833 49.3534Z" fill="black"/>
<mask id="mask0" mask-type="alpha" maskUnits="userSpaceOnUse" x="35" y="27" width="20" height="28">
<path fill-rule="evenodd" clip-rule="evenodd" d="M54.3333 36.3139C54.3333 31.1913 50.1333 27 45 27C39.8666 27 35.6666 31.1913 35.6666 36.3139C35.6666 39.341 37.0666 42.0187 39.2833 43.6486L38 53.6611C37.8833 54.1268 38.1166 54.5925 38.4666 54.8254C38.8166 55.0582 39.2833 55.0582 39.75 54.8254L45 51.6819L50.25 54.8254C50.3666 54.9418 50.6 54.9418 50.8333 54.9418C51.0666 54.9418 51.3 54.8254 51.4166 54.7089C51.7666 54.4761 52 54.0104 51.8833 53.5447L50.6 43.6486C52.9333 42.0187 54.3333 39.341 54.3333 36.3139ZM38 36.3139C38 32.4719 41.15 29.3285 45 29.3285C48.85 29.3285 52 32.4719 52 36.3139C52 40.1559 48.85 43.2994 45 43.2994C41.15 43.2994 38 40.1559 38 36.3139ZM45.5833 49.3534L49.3166 51.5655L48.5 44.9293C47.45 45.395 46.2833 45.6279 45 45.6279C43.7166 45.6279 42.55 45.395 41.5 44.9293L40.6833 51.5655L44.4166 49.3534C44.7666 49.1206 45.2333 49.1206 45.5833 49.3534Z" fill="white"/>
</mask>
<g mask="url(#mask0)">
<rect x="31" y="27" width="28" height="28" fill="white"/>
</g>
<defs>
<filter id="filter0_d" x="0" y="0" width="90" height="90" filterUnits="userSpaceOnUse" color-interpolation-filters="sRGB">
<feFlood flood-opacity="0" result="BackgroundImageFix"/>
<feColorMatrix in="SourceAlpha" type="matrix" values="0 0 0 0 0 0 0 0 0 0 0 0 0 0 0 0 0 0 127 0"/>
<feOffset dy="4"/>
<feGaussianBlur stdDeviation="5"/>
<feColorMatrix type="matrix" values="0 0 0 0 0 0 0 0 0 0 0 0 0 0 0 0 0 0 0.38 0"/>
<feBlend mode="normal" in2="BackgroundImageFix" result="effect1_dropShadow"/>
<feBlend mode="normal" in="SourceGraphic" in2="effect1_dropShadow" result="shape"/>
</filter>
</defs>
</svg>
