<svg width="20" height="20" viewBox="0 0 20 20" fill="none" xmlns="http://www.w3.org/2000/svg">
<path d="M13.875 2.58335C13.7765 2.53459 13.6694 2.50572 13.5597 2.49837C13.4501 2.49101 13.3401 2.50533 13.236 2.5405C13.1318 2.57567 13.0357 2.63101 12.9529 2.70334C12.8702 2.77568 12.8025 2.8636 12.7538 2.9621C12.705 3.06059 12.6761 3.16772 12.6688 3.27737C12.6614 3.38702 12.6758 3.49705 12.7109 3.60116C12.7461 3.70528 12.8014 3.80145 12.8738 3.88418C12.9461 3.96692 13.034 4.03459 13.1325 4.08335C14.5568 4.78985 15.7004 5.95709 16.3777 7.39551C17.0549 8.83392 17.226 10.459 16.8632 12.007C16.5003 13.5549 15.6249 14.9347 14.379 15.9223C13.1331 16.91 11.5899 17.4474 10 17.4474C8.41014 17.4474 6.86696 16.91 5.62105 15.9223C4.37515 14.9347 3.4997 13.5549 3.13687 12.007C2.77404 10.459 2.94514 8.83392 3.62239 7.39551C4.29963 5.95709 5.44325 4.78985 6.86752 4.08335C7.06643 3.98488 7.21808 3.81144 7.28911 3.60116C7.36014 3.39089 7.34473 3.16101 7.24627 2.9621C7.14781 2.76318 6.97436 2.61153 6.76409 2.5405C6.55381 2.46947 6.32393 2.48488 6.12502 2.58335C4.36437 3.45724 2.9508 4.90061 2.11383 6.6791C1.27686 8.4576 1.06562 10.4668 1.51442 12.3805C1.96322 14.2941 3.04571 15.9999 4.58612 17.2209C6.12653 18.4418 8.03442 19.1062 10 19.1062C11.9656 19.1062 13.8735 18.4418 15.4139 17.2209C16.9543 15.9999 18.0368 14.2941 18.4856 12.3805C18.9344 10.4668 18.7232 8.4576 17.8862 6.6791C17.0492 4.90061 15.6357 3.45724 13.875 2.58335V2.58335Z" fill="#333333"/>
<path d="M10.0001 10.8333C10.2211 10.8333 10.4331 10.7455 10.5893 10.5892C10.7456 10.433 10.8334 10.221 10.8334 9.99999V1.66665C10.8334 1.44563 10.7456 1.23367 10.5893 1.07739C10.4331 0.92111 10.2211 0.833313 10.0001 0.833313C9.77907 0.833313 9.56711 0.92111 9.41083 1.07739C9.25455 1.23367 9.16675 1.44563 9.16675 1.66665V9.99999C9.16675 10.221 9.25455 10.433 9.41083 10.5892C9.56711 10.7455 9.77907 10.8333 10.0001 10.8333Z" fill="#333333"/>
</svg>
