<svg width="18" height="18" viewBox="0 0 18 18" fill="none" xmlns="http://www.w3.org/2000/svg">
<path fill-rule="evenodd" clip-rule="evenodd" d="M0.75 9C0.75 4.425 4.425 0.75 9 0.75C13.575 0.75 17.25 4.425 17.25 9C17.25 13.575 13.575 17.25 9 17.25C4.425 17.25 0.75 13.575 0.75 9ZM2.25 9C2.25 12.75 5.25 15.75 9 15.75C12.75 15.75 15.75 12.75 15.75 9C15.75 5.25 12.75 2.25 9 2.25C5.25 2.25 2.25 5.25 2.25 9ZM9 6C7.35 6 6 7.35 6 9C6 10.65 7.35 12 9 12C10.65 12 12 10.65 12 9C12 7.35 10.65 6 9 6ZM7.5 9C7.5 9.825 8.175 10.5 9 10.5C9.825 10.5 10.5 9.825 10.5 9C10.5 8.175 9.825 7.5 9 7.5C8.175 7.5 7.5 8.175 7.5 9Z" fill="black"/>
<mask id="mask0" mask-type="alpha" maskUnits="userSpaceOnUse" x="0" y="0" width="18" height="18">
<path fill-rule="evenodd" clip-rule="evenodd" d="M0.75 9C0.75 4.425 4.425 0.75 9 0.75C13.575 0.75 17.25 4.425 17.25 9C17.25 13.575 13.575 17.25 9 17.25C4.425 17.25 0.75 13.575 0.75 9ZM2.25 9C2.25 12.75 5.25 15.75 9 15.75C12.75 15.75 15.75 12.75 15.75 9C15.75 5.25 12.75 2.25 9 2.25C5.25 2.25 2.25 5.25 2.25 9ZM9 6C7.35 6 6 7.35 6 9C6 10.65 7.35 12 9 12C10.65 12 12 10.65 12 9C12 7.35 10.65 6 9 6ZM7.5 9C7.5 9.825 8.175 10.5 9 10.5C9.825 10.5 10.5 9.825 10.5 9C10.5 8.175 9.825 7.5 9 7.5C8.175 7.5 7.5 8.175 7.5 9Z" fill="white"/>
</mask>
<g mask="url(#mask0)">
<rect width="18" height="18" fill="#6E6B7B"/>
</g>
</svg>
