<svg width="21" height="21" viewBox="0 0 21 21" fill="none" xmlns="http://www.w3.org/2000/svg">
<path fill-rule="evenodd" clip-rule="evenodd" d="M2.625 1.75H8.75C9.275 1.75 9.625 2.1 9.625 2.625V8.75C9.625 9.275 9.275 9.625 8.75 9.625H2.625C2.1 9.625 1.75 9.275 1.75 8.75V2.625C1.75 2.1 2.1 1.75 2.625 1.75ZM3.5 7.875H7.875V3.5H3.5V7.875ZM18.375 1.75H12.25C11.725 1.75 11.375 2.1 11.375 2.625V8.75C11.375 9.275 11.725 9.625 12.25 9.625H18.375C18.9 9.625 19.25 9.275 19.25 8.75V2.625C19.25 2.1 18.9 1.75 18.375 1.75ZM13.125 7.875H17.5V3.5H13.125V7.875ZM18.375 11.375H12.25C11.725 11.375 11.375 11.725 11.375 12.25V18.375C11.375 18.9 11.725 19.25 12.25 19.25H18.375C18.9 19.25 19.25 18.9 19.25 18.375V12.25C19.25 11.725 18.9 11.375 18.375 11.375ZM13.125 17.5H17.5V13.125H13.125V17.5ZM8.75 11.375H2.625C2.1 11.375 1.75 11.725 1.75 12.25V18.375C1.75 18.9 2.1 19.25 2.625 19.25H8.75C9.275 19.25 9.625 18.9 9.625 18.375V12.25C9.625 11.725 9.275 11.375 8.75 11.375ZM3.5 17.5H7.875V13.125H3.5V17.5Z" fill="black"/>
<mask id="mask0" mask-type="alpha" maskUnits="userSpaceOnUse" x="1" y="1" width="19" height="19">
<path fill-rule="evenodd" clip-rule="evenodd" d="M2.625 1.75H8.75C9.275 1.75 9.625 2.1 9.625 2.625V8.75C9.625 9.275 9.275 9.625 8.75 9.625H2.625C2.1 9.625 1.75 9.275 1.75 8.75V2.625C1.75 2.1 2.1 1.75 2.625 1.75ZM3.5 7.875H7.875V3.5H3.5V7.875ZM18.375 1.75H12.25C11.725 1.75 11.375 2.1 11.375 2.625V8.75C11.375 9.275 11.725 9.625 12.25 9.625H18.375C18.9 9.625 19.25 9.275 19.25 8.75V2.625C19.25 2.1 18.9 1.75 18.375 1.75ZM13.125 7.875H17.5V3.5H13.125V7.875ZM18.375 11.375H12.25C11.725 11.375 11.375 11.725 11.375 12.25V18.375C11.375 18.9 11.725 19.25 12.25 19.25H18.375C18.9 19.25 19.25 18.9 19.25 18.375V12.25C19.25 11.725 18.9 11.375 18.375 11.375ZM13.125 17.5H17.5V13.125H13.125V17.5ZM8.75 11.375H2.625C2.1 11.375 1.75 11.725 1.75 12.25V18.375C1.75 18.9 2.1 19.25 2.625 19.25H8.75C9.275 19.25 9.625 18.9 9.625 18.375V12.25C9.625 11.725 9.275 11.375 8.75 11.375ZM3.5 17.5H7.875V13.125H3.5V17.5Z" fill="white"/>
</mask>
<g mask="url(#mask0)">
<rect width="21" height="21" fill="#F2F2F2"/>
</g>
</svg>
