<svg width="21" height="20" viewBox="0 0 21 20" fill="none" xmlns="http://www.w3.org/2000/svg">
<path fill-rule="evenodd" clip-rule="evenodd" d="M6.125 5.125C6.125 2.675 8.05 0.75 10.5 0.75C12.95 0.75 14.875 2.675 14.875 5.125C14.875 7.575 12.95 9.5 10.5 9.5C8.05 9.5 6.125 7.575 6.125 5.125ZM18.375 15.625V17.375C18.375 17.9 18.025 18.25 17.5 18.25C16.975 18.25 16.625 17.9 16.625 17.375V15.625C16.625 14.1375 15.4875 13 14 13H7C5.5125 13 4.375 14.1375 4.375 15.625V17.375C4.375 17.9 4.025 18.25 3.5 18.25C2.975 18.25 2.625 17.9 2.625 17.375V15.625C2.625 13.175 4.55 11.25 7 11.25H14C16.45 11.25 18.375 13.175 18.375 15.625ZM10.5 7.75C9.0125 7.75 7.875 6.6125 7.875 5.125C7.875 3.6375 9.0125 2.5 10.5 2.5C11.9875 2.5 13.125 3.6375 13.125 5.125C13.125 6.6125 11.9875 7.75 10.5 7.75Z" fill="black"/>
<mask id="mask0" mask-type="alpha" maskUnits="userSpaceOnUse" x="2" y="0" width="17" height="19">
<path fill-rule="evenodd" clip-rule="evenodd" d="M6.125 5.125C6.125 2.675 8.05 0.75 10.5 0.75C12.95 0.75 14.875 2.675 14.875 5.125C14.875 7.575 12.95 9.5 10.5 9.5C8.05 9.5 6.125 7.575 6.125 5.125ZM18.375 15.625V17.375C18.375 17.9 18.025 18.25 17.5 18.25C16.975 18.25 16.625 17.9 16.625 17.375V15.625C16.625 14.1375 15.4875 13 14 13H7C5.5125 13 4.375 14.1375 4.375 15.625V17.375C4.375 17.9 4.025 18.25 3.5 18.25C2.975 18.25 2.625 17.9 2.625 17.375V15.625C2.625 13.175 4.55 11.25 7 11.25H14C16.45 11.25 18.375 13.175 18.375 15.625ZM10.5 7.75C9.0125 7.75 7.875 6.6125 7.875 5.125C7.875 3.6375 9.0125 2.5 10.5 2.5C11.9875 2.5 13.125 3.6375 13.125 5.125C13.125 6.6125 11.9875 7.75 10.5 7.75Z" fill="white"/>
</mask>
<g mask="url(#mask0)">
<rect y="-1" width="24.5" height="24.5" fill="#6E6B7B"/>
</g>
</svg>
