<svg width="21" height="21" viewBox="0 0 21 21" fill="none" xmlns="http://www.w3.org/2000/svg">
<path fill-rule="evenodd" clip-rule="evenodd" d="M18.2 6.51875C18.2219 6.5625 18.2437 6.60625 18.2875 6.65C18.375 6.7375 18.375 6.9125 18.375 7V17.5C18.375 18.9875 17.2375 20.125 15.75 20.125H5.25C3.7625 20.125 2.625 18.9875 2.625 17.5V3.5C2.625 2.0125 3.7625 0.875 5.25 0.875H12.25C12.3375 0.875 12.5125 0.875 12.6 0.9625C12.6875 0.9625 12.775 1.05 12.8625 1.1375L18.1125 6.3875C18.1563 6.43125 18.1781 6.475 18.2 6.51875ZM15.4 6.125L13.125 3.85V6.125H15.4ZM15.75 18.375H5.25C4.725 18.375 4.375 18.025 4.375 17.5V3.5C4.375 2.975 4.725 2.625 5.25 2.625H11.375V7C11.375 7.525 11.725 7.875 12.25 7.875H16.625V17.5C16.625 18.025 16.275 18.375 15.75 18.375ZM14 12.25C14.525 12.25 14.875 11.9 14.875 11.375C14.875 10.85 14.525 10.5 14 10.5H7C6.475 10.5 6.125 10.85 6.125 11.375C6.125 11.9 6.475 12.25 7 12.25H14ZM14.875 14.875C14.875 15.4 14.525 15.75 14 15.75H7C6.475 15.75 6.125 15.4 6.125 14.875C6.125 14.35 6.475 14 7 14H14C14.525 14 14.875 14.35 14.875 14.875ZM7 7C6.475 7 6.125 7.35 6.125 7.875C6.125 8.4 6.475 8.75 7 8.75H8.75C9.275 8.75 9.625 8.4 9.625 7.875C9.625 7.35 9.275 7 8.75 7H7Z" fill="black"/>
<mask id="mask0" mask-type="alpha" maskUnits="userSpaceOnUse" x="2" y="0" width="17" height="21">
<path fill-rule="evenodd" clip-rule="evenodd" d="M18.2 6.51875C18.2219 6.5625 18.2437 6.60625 18.2875 6.65C18.375 6.7375 18.375 6.9125 18.375 7V17.5C18.375 18.9875 17.2375 20.125 15.75 20.125H5.25C3.7625 20.125 2.625 18.9875 2.625 17.5V3.5C2.625 2.0125 3.7625 0.875 5.25 0.875H12.25C12.3375 0.875 12.5125 0.875 12.6 0.9625C12.6875 0.9625 12.775 1.05 12.8625 1.1375L18.1125 6.3875C18.1563 6.43125 18.1781 6.475 18.2 6.51875ZM15.4 6.125L13.125 3.85V6.125H15.4ZM15.75 18.375H5.25C4.725 18.375 4.375 18.025 4.375 17.5V3.5C4.375 2.975 4.725 2.625 5.25 2.625H11.375V7C11.375 7.525 11.725 7.875 12.25 7.875H16.625V17.5C16.625 18.025 16.275 18.375 15.75 18.375ZM14 12.25C14.525 12.25 14.875 11.9 14.875 11.375C14.875 10.85 14.525 10.5 14 10.5H7C6.475 10.5 6.125 10.85 6.125 11.375C6.125 11.9 6.475 12.25 7 12.25H14ZM14.875 14.875C14.875 15.4 14.525 15.75 14 15.75H7C6.475 15.75 6.125 15.4 6.125 14.875C6.125 14.35 6.475 14 7 14H14C14.525 14 14.875 14.35 14.875 14.875ZM7 7C6.475 7 6.125 7.35 6.125 7.875C6.125 8.4 6.475 8.75 7 8.75H8.75C9.275 8.75 9.625 8.4 9.625 7.875C9.625 7.35 9.275 7 8.75 7H7Z" fill="white"/>
</mask>
<g mask="url(#mask0)">
<rect width="21" height="21" fill="#6E6B7B"/>
</g>
</svg>
