<svg width="21" height="21" viewBox="0 0 21 21" fill="none" xmlns="http://www.w3.org/2000/svg">
<path fill-rule="evenodd" clip-rule="evenodd" d="M17.5 2.625H3.5C2.0125 2.625 0.875 3.7625 0.875 5.25V15.75C0.875 17.2375 2.0125 18.375 3.5 18.375H17.5C18.9875 18.375 20.125 17.2375 20.125 15.75V5.25C20.125 3.7625 18.9875 2.625 17.5 2.625ZM3.50001 4.375H17.5C17.85 4.375 18.1125 4.55 18.2875 4.9L10.5 10.325L2.71251 4.9C2.88751 4.55 3.15001 4.375 3.50001 4.375ZM2.625 15.75C2.625 16.275 2.975 16.625 3.5 16.625H17.5C18.025 16.625 18.375 16.275 18.375 15.75V6.9125L11.025 12.075C10.85 12.1625 10.675 12.25 10.5 12.25C10.325 12.25 10.15 12.1625 9.975 12.075L2.625 6.9125V15.75Z" fill="black"/>
<mask id="mask0" mask-type="alpha" maskUnits="userSpaceOnUse" x="0" y="2" width="21" height="17">
<path fill-rule="evenodd" clip-rule="evenodd" d="M17.5 2.625H3.5C2.0125 2.625 0.875 3.7625 0.875 5.25V15.75C0.875 17.2375 2.0125 18.375 3.5 18.375H17.5C18.9875 18.375 20.125 17.2375 20.125 15.75V5.25C20.125 3.7625 18.9875 2.625 17.5 2.625ZM3.50001 4.375H17.5C17.85 4.375 18.1125 4.55 18.2875 4.9L10.5 10.325L2.71251 4.9C2.88751 4.55 3.15001 4.375 3.50001 4.375ZM2.625 15.75C2.625 16.275 2.975 16.625 3.5 16.625H17.5C18.025 16.625 18.375 16.275 18.375 15.75V6.9125L11.025 12.075C10.85 12.1625 10.675 12.25 10.5 12.25C10.325 12.25 10.15 12.1625 9.975 12.075L2.625 6.9125V15.75Z" fill="white"/>
</mask>
<g mask="url(#mask0)">
<rect width="21" height="21" fill="#6E6B7B"/>
</g>
</svg>
